{"title":"Gat seng gung ziu aka The Fun, the Luck &amp; the Tycoon","uid":14159747,"size":732753920,"categoryP":"video","categoryS":"movies","magnet":"?xt=urn:btih:83a93c4a5f9c5e99cef364884dd9d67748142ad1&amp;dn=Gat+seng+gung+ziu+aka+The+Fun%2C+the+Luck+%26amp%3B+the+Tycoon&amp;tr=udp%3A%2F%2Ftracker.leechers-paradise.org%3A6969&amp;tr=udp%3A%2F%2Fzer0day.ch%3A1337&amp;tr=udp%3A%2F%2Fopen.demonii.com%3A1337&amp;tr=udp%3A%2F%2Ftracker.coppersurfer.tk%3A6969&amp;tr=udp%3A%2F%2Fexodus.desync.com%3A6969","seeders":0,"leechers":1,"uploader":null,"files":1,"time":1459705367,"description":"This early To film stars Chow Yun Fat and Sylvia Chang in a frothy comedy that captures the 1980s in all its excessive, materialistic glory. Lam Bo Sun, the richest man in Hong Kong, is expected to marry the ditziest of socialites in a matter of weeks. On a whim, he leaves everything behind and gets a job as a lowly busboy at a noodle restaurant, and finds the girl of his dreams.\r\n \nhttps://www.themoviedb.org/movie/183846-gat-seng-gung-ziu\r\n\r\n\r\nFormat                                   : AVI\r\nFormat/Info                              : Audio Video Interleave\r\nFile size                                : 699 MiB\r\nDuration                                 : 1h 25mn\r\nOverall bit rate mode                    : Variable\r\nOverall bit rate                         : 1 137 Kbps\r\nWriting application                      : VirtualDubMod 1.5.10.2 (build 2540/release)\r\nWriting library                          : VirtualDubMod build 2540/release\r\n\r\nVideo\r\nID                                       : 0\r\nFormat                                   : MPEG-4 Visual\r\nFormat profile                           : Advanced   \r\nFormat settings, BVOP                    : 2\r\nFormat settings, QPel                    : Yes\r\nFormat settings, GMC                     : No warppoints\r\nFormat settings, Matrix                  : Default (MPEG)\r\nMuxing mode                              : Packed bitstream\r\nCodec ID                                 : XVID\r\nCodec ID/Hint                            : XviD\r\nDuration                                 : 1h 25mn\r\nBit rate                                 : 1 030 Kbps\r\nWidth                                    : 608 pixels\r\nHeight                                   : 336 pixels\r\nDisplay aspect ratio                     : 16:9\r\nFrame rate                               : 23.976 (23976/1000) fps\r\nColor space                              : YUV\r\nChroma subsampling                       : 4:2:0\r\nBit depth                                : 8 bits\r\nScan type                                : Progressive\r\nCompression mode                         : Lossy\r\nBits/(Pixel*Frame)                       : 0.210\r\nStream size                              : 633 MiB (91%)\r\nWriting library                          : XviD 1.1.2 (UTC 2006-11-01)\r\n\r\nAudio\r\nID                                       : 1\r\nFormat                                   : MPEG Audio\r\nFormat version                           : Version 1\r\nFormat profile                           : Layer 3\r\nCodec ID                                 : 55\r\nCodec ID/Hint                            : MP3\r\nDuration                                 : 1h 25mn\r\nBit rate mode                            : Variable\r\nBit rate                                 : 94.6 Kbps\r\nNominal bit rate                         : 128 Kbps\r\nChannel(s)                               : 1 channel\r\nSampling rate                            : 48.0 KHz\r\nCompression mode                         : Lossy\r\nStream size                              : 58.1 MiB (8%)\r\nAlignment                                : Aligned on interleaves\r\nInterleave, duration                     : 24 ms (0.58 video frame)\r\nInterleave, preload duration             : 540 ms\r\nWriting library                          : LAME3.98r\r\nEncoding settings                        : -m m -V 4 -q 2 -lowpass 20.5 --abr 128","torrent":{"xt":"urn:btih:83a93c4a5f9c5e99cef364884dd9d67748142ad1","amp;dn":"Gat+seng+gung+ziu+aka+The+Fun%2C+the+Luck+%26amp%3B+the+Tycoon","amp;tr":["udp%3A%2F%2Ftracker.leechers-paradise.org%3A6969","udp%3A%2F%2Fzer0day.ch%3A1337","udp%3A%2F%2Fopen.demonii.com%3A1337","udp%3A%2F%2Ftracker.coppersurfer.tk%3A6969","udp%3A%2F%2Fexodus.desync.com%3A6969"],"infoHash":"83a93c4a5f9c5e99cef364884dd9d67748142ad1","infoHashBuffer":{"type":"Buffer","data":[131,169,60,74,95,156,94,153,206,243,100,136,77,217,214,119,72,20,42,209]},"announce":[],"urlList":[]}}